# xmcd
#
# Track frame offsets:
#	150
#	19775
#	34668
#	58852
#	80962
#	108285
#	130392
#	149818
#	179286
#	201929
#
# Disc length: 3009 seconds
#
# Revision: 0
# Processed by: cddbd v1.5.2PL0 Copyright (c) Steve Scherf et al.
# Submitted via: dBpowerAMP V4.0
#
DISCID=970bbf0a
DTITLE=Slam Allen - This World
DYEAR=2010
DGENRE=Blues
TTITLE0=Last One To Know
TTITLE1=I Know You Got A Man
TTITLE2=If You Got A Good Woman
TTITLE3=Baby Can I Hold You
TTITLE4=Find the Strength In Your Tears
TTITLE5=Another Man's Women
TTITLE6=Let the Good Times Roll
TTITLE7=The World Don't Stop Turning
TTITLE8=Somebody To Turn Me On
TTITLE9=This World
EXTD=
EXTT0=
EXTT1=
EXTT2=
EXTT3=
EXTT4=
EXTT5=
EXTT6=
EXTT7=
EXTT8=
EXTT9=
PLAYORDER=
